<?xml version="1.0" encoding="UTF-8" standalone="no"?>
<svg
   height="48px"
   viewBox="0 -960 960 960"
   width="48px"
   fill="#e3e3e3"
   version="1.1"
   id="svg1"
   sodipodi:docname="go_state_transition.svg"
   inkscape:version="1.4.3 (0d15f75042, 2025-12-25)"
   xmlns:inkscape="http://www.inkscape.org/namespaces/inkscape"
   xmlns:sodipodi="http://sodipodi.sourceforge.net/DTD/sodipodi-0.dtd"
   xmlns="http://www.w3.org/2000/svg"
   xmlns:svg="http://www.w3.org/2000/svg">
  <defs
     id="defs1">
    <inkscape:path-effect
       effect="offset"
       id="path-effect2"
       is_visible="true"
       lpeversion="1.3"
       linejoin_type="miter"
       unit="mm"
       offset="0.2"
       miter_limit="4"
       attempt_force_join="false"
       update_on_knot_move="true" />
    <inkscape:path-effect
       effect="fillet_chamfer"
       id="path-effect1"
       is_visible="true"
       lpeversion="1"
       nodesatellites_param="F,1,0,1,0,0.11,0,1 @ F,1,0,1,0,0.11,0,1 @ F,1,0,1,0,0.11,0,1 @ F,1,0,1,0,0.11,0,1 @ F,1,0,1,0,0.11,0,1 @ F,1,0,1,0,0.11,0,1 | F,1,0,1,0,0.11,0,1 @ F,1,0,1,0,0.11,0,1 @ F,1,0,1,0,0.11,0,1 @ F,1,0,1,0,0.11,0,1 @ F,1,0,1,0,0.11,0,1 @ F,1,0,1,0,0.11,0,1 @ F,1,0,1,0,0.11,0,1 @ F,1,0,1,0,0.11,0,1 | "
       radius="10"
       unit="px"
       method="auto"
       mode="F"
       chamfer_steps="1"
       flexible="true"
       use_knot_distance="true"
       apply_no_radius="true"
       apply_with_radius="true"
       only_selected="false"
       hide_knots="false" />
    <inkscape:path-effect
       effect="fill_between_many"
       method="originald"
       linkedpaths="#path1,0,1|"
       id="path-effect3" />
  </defs>
  <sodipodi:namedview
     id="namedview1"
     pagecolor="#505050"
     bordercolor="#ffffff"
     borderopacity="1"
     inkscape:showpageshadow="0"
     inkscape:pageopacity="0"
     inkscape:pagecheckerboard="1"
     inkscape:deskcolor="#505050"
     inkscape:zoom="10.974887"
     inkscape:cx="25.284998"
     inkscape:cy="29.840854"
     inkscape:window-width="1600"
     inkscape:window-height="996"
     inkscape:window-x="0"
     inkscape:window-y="0"
     inkscape:window-maximized="1"
     inkscape:current-layer="svg1" />
  <path
     inkscape:original-d="M 0,0"
     inkscape:path-effect="#path-effect3"
     d="m 241.51621,-194.12933 q -47.94366,43.42366 -100.0824,38.95358 -52.138741,-4.47008 -90.49367,-38.95358 Q 12.585208,-228.61284 -3.5533888e-6,-282.89243 -12.585215,-337.17201 19.776758,-394.64451 l 98.284512,-174.97184 q -32.361974,-26.8205 -51.539436,-67.21729 -19.177469,-40.40957 -19.177469,-87.31987 0,-81.1384 53.936635,-138.90467 53.93661,-57.77896 130.64648,-57.77896 76.70987,0 130.64648,57.47244 53.93662,57.47248 53.93662,139.21119 0,81.73863 -54.22429,139.21116 -54.22427,57.47251 -130.35881,57.47251 -12.94479,0 -25.88958,-1.91576 -12.94479,-1.91574 -24.45127,-5.74724 l -100.681696,180.0805 q -16.780286,29.37484 -10.571581,57.61299 6.196722,28.22538 26.369013,45.97799 20.160314,17.73985 47.128634,19.6556 26.96831,1.91576 50.94014,-19.79608 l 518.9902,-475.10605 q 47.94362,-43.42365 100.68167,-39.59216 52.73807,3.83156 91.09294,38.31505 38.35496,34.4835 50.94019,89.40168 12.58522,54.91814 -19.77675,112.39064 l -97.08592,174.97184 q 32.36197,26.82049 51.53937,67.21728 19.17749,40.40956 19.17749,87.31989 0,81.12563 -54.58384,138.904652 Q 801.15065,0 724.50072,0 647.83878,0 594.50144,-57.779018 541.16411,-115.55804 541.16411,-196.68367 q 0,-81.12563 53.33733,-138.90466 53.33733,-57.77901 130.04718,-57.77901 12.86087,0 25.0146,1.27716 12.14174,1.27717 24.1277,5.10867 l 100.68167,-178.80334 q 16.78025,-29.37483 10.5716,-57.61299 -6.19671,-28.2254 -26.36906,-45.97803 -20.16026,-17.73985 -47.12861,-19.65559 -26.96832,-1.91574 -50.94011,19.79613 z"
     id="path3"
     style="fill:#ff6600" />
  <path
     d="m 241.51621,-194.12933 q -47.94366,43.42366 -100.0824,38.95358 -52.138737,-4.47008 -90.493666,-38.95358 Q 12.585212,-228.61284 -4.9387666e-8,-282.89243 -12.585211,-337.17201 19.776762,-394.64451 l 98.284508,-174.97184 q -32.36197,-26.8205 -51.539432,-67.21729 -19.177469,-40.40957 -19.177469,-87.31987 0,-81.1384 53.936631,-138.90467 53.93661,-57.77896 130.64648,-57.77896 76.70987,0 130.64648,57.47244 53.93662,57.47248 53.93662,139.21119 0,81.73863 -54.22429,139.21116 -54.22427,57.47251 -130.35881,57.47251 -12.94479,0 -25.88958,-1.91576 -12.94479,-1.91574 -24.45127,-5.74724 l -100.681692,180.0805 q -16.780286,29.37484 -10.571581,57.61299 6.196722,28.22538 26.369013,45.97799 20.16031,17.73985 47.12863,19.6556 26.96831,1.91576 50.94014,-19.79608 l 518.9902,-475.10605 q 47.94362,-43.42365 100.68167,-39.59216 52.73807,3.83156 91.09294,38.31505 38.35496,34.4835 50.94019,89.40168 12.58522,54.91814 -19.77675,112.39064 l -97.08592,174.97184 q 32.36197,26.82049 51.53937,67.21728 19.17749,40.40956 19.17749,87.31989 0,81.12563 -54.58384,138.904652 Q 801.15065,0 724.50072,0 647.83878,0 594.50144,-57.779018 541.16411,-115.55804 541.16411,-196.68367 q 0,-81.12563 53.33733,-138.90466 53.33733,-57.77901 130.04718,-57.77901 12.86087,0 25.0146,1.27716 12.14174,1.27717 24.1277,5.10867 l 100.68167,-178.80334 q 16.78025,-29.37483 10.5716,-57.61299 -6.19671,-28.2254 -26.36906,-45.97803 -20.16026,-17.73985 -47.12861,-19.65559 -26.96832,-1.91574 -50.94011,19.79613 z m 70.11762,-445.29691 q 32.96126,-35.3265 32.96126,-84.93165 0,-49.60513 -33.15304,-84.72718 -33.15305,-35.12213 -79.70634,-35.12213 -46.5533,0 -79.51457,35.32643 -32.96127,35.32642 -32.96127,84.93163 0,49.60514 33.15304,84.72719 33.15305,35.1221 79.70634,35.1221 46.55331,0 79.51458,-35.32639 z m 493.37628,527.46981 q 33.40475,-35.32644 33.40475,-84.93158 0,-49.60516 -33.40475,-84.72724 -33.3928,-35.12209 -80.30566,-35.12209 -46.90089,0 -79.26287,35.32643 -32.36197,35.32642 -32.36197,84.93159 0,49.60516 32.36197,84.72724 32.36198,35.122085 79.26287,35.122085 46.91286,0 80.30566,-35.326435 z M 231.92748,-724.15351 Z m 493.81974,527.46984 z"
     id="path1"
     style="stroke-width:1.23725;fill:#55ddff;fill-opacity:1" />
</svg>
